<svg width="430" height="403" viewBox="0 0 430 403" fill="none" xmlns="http://www.w3.org/2000/svg">
    <path d="M359.518 146.429C364.677 134.886 367.548 122.098 367.548 108.637C367.548 57.427 326.034 15.913 274.824 15.913C251.556 15.913 230.291 24.485 214.011 38.642C210.662 16.761 191.759 0 168.941 0C147.884 0 130.17 14.278 124.928 33.678C124.502 33.673 124.077 33.662 123.65 33.662C65.004 33.662 17.461 81.205 17.461 139.851C17.461 163.75 25.358 185.803 38.682 203.548C23.706 216.301 13.743 234.76 12.176 255.569H411.286C407.593 235.49 397.517 217.646 383.239 204.218C387.244 198.236 389.583 191.044 389.583 183.305C389.581 165.114 376.674 149.936 359.518 146.429Z" fill="#FCF5B7"/>
    <path d="M11.952 261.342C11.952 303.257 45.931 337.235 87.845 337.235C102.846 337.235 116.818 332.865 128.592 325.354C148.25 343.373 174.446 354.372 203.215 354.372C221.919 354.372 239.535 349.717 254.976 341.512C271.743 357.085 294.203 366.613 318.891 366.613C370.777 366.613 412.839 324.551 412.839 272.665C412.839 266.827 412.304 261.114 411.285 255.571H12.175C12.031 257.476 11.952 259.4 11.952 261.342Z" fill="#A0E1C0"/>
    <path d="M128.649 259.077H67.769V261.081H128.649V259.077Z" fill="white"/>
    <path d="M209.961 259.077H149.081V261.081H209.961V259.077Z" fill="white"/>
    <path d="M207.042 268.296H146.162V270.3H207.042V268.296Z" fill="white"/>
    <path d="M288.354 268.296H227.474V270.3H288.354V268.296Z" fill="white"/>
    <path d="M330.47 272.304H289.188V274.308H330.47V272.304Z" fill="white"/>
    <path d="M232.687 272.304H191.405V274.308H232.687V272.304Z" fill="white"/>
    <path d="M139.282 272.304H98V274.308H139.282V272.304Z" fill="white"/>
    <path d="M387.18 259.077H228.308V261.081H387.18V259.077Z" fill="white"/>
    <path d="M359.659 263.486H267.922V265.49H359.659V263.486Z" fill="white"/>
    <path d="M252.077 263.486H124.479V265.49H252.077V263.486Z" fill="white"/>
    <path d="M109.468 263.486H40.248V265.49H109.468V263.486Z" fill="white"/>
    <path d="M304.216 132.201H325.165C326.629 118.656 324.593 104.558 319.32 92.265H298.661C296.904 92.265 295.48 90.841 295.48 89.084V89.02C295.48 87.263 296.904 85.839 298.661 85.839H316.173C314.071 82.053 311.63 78.506 308.856 75.281H250.069C247.685 75.281 245.752 73.348 245.752 70.964V70.877C245.752 68.493 247.685 66.56 250.069 66.56H299.418C298.763 66.086 298.097 65.624 297.418 65.18C281.718 54.905 261.797 53.728 243.978 58.729C229.365 62.831 215.984 70.737 203.644 80.128C191.304 70.737 177.923 62.83 163.309 58.729C145.49 53.728 125.569 54.905 109.869 65.18C105.089 68.309 100.892 72.206 97.289 76.659H130.354C132.989 76.659 135.125 78.795 135.125 81.431V81.527C135.125 84.162 132.989 86.299 130.353 86.299H90.866C85.157 96.77 82.029 109.022 81.688 121.338H147.244C149.001 121.338 150.425 122.762 150.425 124.519V124.583C150.425 126.34 149.001 127.764 147.244 127.764H81.767C81.967 131.635 82.437 135.483 83.204 139.251C83.349 139.965 83.509 140.674 83.671 141.382H193.7C196.335 141.382 198.472 143.518 198.472 146.154V146.25C198.472 148.885 196.336 151.022 193.7 151.022H86.476C93.878 172.013 108.819 189.781 126.493 202.433H206.434C209.195 202.433 211.433 204.671 211.433 207.432V207.533C211.433 210.294 209.195 212.532 206.434 212.532H142.228C159.576 222.787 178.505 231.292 197.583 236.045C199.479 236.517 201.43 236.729 203.383 236.729H203.881C205.826 236.729 207.768 236.519 209.655 236.049C233.351 230.154 256.823 218.471 277.317 204.838C298.305 190.876 316.009 169.793 322.812 144.596H304.214C300.826 144.596 298.079 141.849 298.079 138.461V138.337C298.081 134.948 300.828 132.201 304.216 132.201Z" fill="white"/>
    <path d="M386.712 322.07L42.554 321.928L35.516 324.994C34.637 339.558 42.619 361.845 52.433 373.225C61.647 383.91 74.872 393.323 89.292 394.764C115.304 397.362 130.666 373.959 154.877 371.302C174.641 369.133 190.33 378.169 205.547 389.566C211.283 393.862 217.2 398.823 224.079 401.176C237.251 405.681 251.361 400.96 263.208 395.015C270.244 391.484 277.729 389.226 285.665 389.985C294.374 390.818 300.661 394.044 308.463 388.478C315.023 383.798 320.928 376.225 329.602 375.785C336.899 375.415 341.843 379.961 354.579 379.961C374.892 379.96 388.257 342.22 386.712 322.07Z" fill="#E45348"/>
    <path d="M60.828 324.076L80.501 326.319C82.308 326.525 83.978 327.549 84.798 329.172C86.637 332.809 82.808 335.723 79.414 336.825C76.134 337.89 72.175 338.784 71.141 342.268C70.519 344.363 71.277 346.615 72.84 348.142C75.873 351.104 80.058 351.28 84.015 351.395L126.589 352.627C132.982 352.812 140.633 353.927 144.694 358.175C147.038 360.627 150.374 361.856 153.707 361.226C172.153 357.737 190.871 355.689 209.635 355.108C220.494 354.772 232.544 355.381 240.324 362.964C243.674 366.229 245.896 370.521 249.311 373.718C255.015 379.058 263.346 380.657 271.153 380.33C292.889 379.419 311.854 365.844 332.712 359.661C339.738 357.578 347.023 356.327 353.844 353.647C360.664 350.967 367.189 346.578 370.456 340.019C372.915 335.083 372.994 328.783 370.399 324.076H60.828Z" fill="#111A32"/>
    <path d="M430.702 320.406L367.319 274.094H62.7L-0.702026 320.418L-0.289028 327.346H429.976L430.702 320.406Z" fill="#111A32"/>
    <path d="M375.362 279.971H54.657L62.7 274.094H367.319L375.362 279.971Z" fill="#283474"/>
    <path d="M386.119 287.831H43.899L53.027 281.161H376.991L386.119 287.831Z" fill="#283474"/>
    <path d="M94.217 286.652L99.315 281.161H53.027L45.512 286.652H94.217Z" fill="#FCF5B7"/>
    <path d="M381.435 284.408L376.991 281.161H255.986L257.218 284.408H381.435Z" fill="#FCF5B7"/>
    <path d="M398.423 296.821H31.595L42.043 289.187H387.975L398.423 296.821Z" fill="#283474"/>
    <path d="M104.188 294.348L107.639 289.187H42.0429L34.9789 294.348H104.188Z" fill="#FCF5B7"/>
    <path d="M394.38 293.867L387.975 289.187H281.555L283.288 293.867H394.38Z" fill="#FCF5B7"/>
    <path d="M412.633 307.204H17.384L29.46 298.38H400.558L412.633 307.204Z" fill="#283474"/>
    <path d="M42.222 303.646L48.753 298.38H29.46L22.253 303.646H42.222Z" fill="#FCF5B7"/>
    <path d="M409.301 304.768L400.558 298.38H253.096L254.975 304.768H409.301Z" fill="#FCF5B7"/>
    <path d="M429.231 319.331H0.784973L14.903 309.016H415.114L429.231 319.331Z" fill="#283474"/>
    <path d="M127.91 331.209H386.518C386.834 328.043 386.913 325.052 386.727 322.364H133.286L127.91 331.209Z" fill="#283474"/>
    <path d="M310.497 348.727L302.43 333.477H35.774C36.127 336.393 36.721 339.526 37.571 342.739H307.33L310.497 348.727Z" fill="#283474"/>
    <path d="M312.559 352.625L310.497 348.727L312.559 352.625Z" fill="#FC9F91"/>
    <path d="M310.497 348.727L307.329 342.739H37.571C38.44 346.027 39.577 349.376 40.949 352.625H312.559L310.497 348.727Z" fill="#FC9F91"/>
    <path d="M290.507 370.59H371.346C374.045 367.36 376.439 363.477 378.498 359.266H287.238L290.507 370.59Z" fill="#283474"/>
    <path d="M216.513 359.266L216.258 370.59L287.237 359.266H216.513Z" fill="#FC9F91"/>
    <path d="M289.394 370.59H290.507L287.237 359.266L289.394 370.59Z" fill="#FC9F91"/>
    <path d="M216.258 370.59H289.394L287.237 359.266L216.258 370.59Z" fill="#FC9F91"/>
    <path d="M75.863 273.018C70.574 233.398 78.754 186.958 99.52 138.721C116.729 98.746 141.981 59.286 168.803 30.459L169.325 30.945C125.363 78.194 64.382 181.628 76.569 272.924L75.863 273.018Z" fill="#E45348"/>
    <path d="M80.502 188.203H73V278.403H80.502V188.203Z" fill="#FEFEED"/>
    <path d="M78.054 188.203H70.552V278.403H78.054V188.203Z" fill="#283474"/>
    <path d="M65.792 260.908C65.65 260.908 65.511 260.845 65.417 260.725C65.255 260.519 65.292 260.22 65.499 260.058C66.607 259.192 67.701 258.244 67.85 257.025C68.031 255.538 66.839 254.366 65.576 253.125C65.13 252.688 64.669 252.235 64.273 251.765C62.097 249.19 61.591 245.211 62.985 241.629C64.118 238.716 66.378 236.068 69.702 233.761C70.698 233.07 71.747 232.435 72.762 231.819C74.082 231.02 75.447 230.193 76.683 229.247C78.431 227.91 80.64 225.719 81.23 222.874C81.775 220.251 80.812 217.773 80.19 216.53C80.073 216.295 80.168 216.01 80.403 215.892C80.638 215.774 80.923 215.871 81.041 216.105C81.718 217.458 82.764 220.163 82.161 223.067C81.646 225.545 79.952 227.943 77.26 230.002C75.983 230.979 74.596 231.819 73.254 232.632C72.252 233.239 71.216 233.868 70.244 234.542C67.079 236.739 64.935 239.24 63.871 241.974C62.602 245.236 63.044 248.839 64.999 251.152C65.367 251.587 65.792 252.005 66.242 252.447C67.613 253.795 69.031 255.188 68.793 257.139C68.6 258.719 67.349 259.816 66.085 260.805C65.997 260.876 65.894 260.908 65.792 260.908Z" fill="#E45348"/>
    <path d="M81.138 199.848H69.636C69.373 199.848 69.161 199.635 69.161 199.373C69.161 199.11 69.374 198.898 69.636 198.898H81.138C81.401 198.898 81.613 199.111 81.613 199.373C81.613 199.636 81.401 199.848 81.138 199.848Z" fill="#E45348"/>
    <path d="M81.291 202.296H69.79C69.527 202.296 69.315 202.083 69.315 201.821C69.315 201.559 69.528 201.346 69.79 201.346H81.291C81.554 201.346 81.766 201.559 81.766 201.821C81.766 202.083 81.553 202.296 81.291 202.296Z" fill="#E45348"/>
    <path d="M81.291 208.876H69.79C69.527 208.876 69.315 208.664 69.315 208.401C69.315 208.138 69.528 207.926 69.79 207.926H81.291C81.554 207.926 81.766 208.138 81.766 208.401C81.766 208.663 81.553 208.876 81.291 208.876Z" fill="#E45348"/>
    <path d="M81.291 211.324H69.79C69.527 211.324 69.315 211.112 69.315 210.849C69.315 210.586 69.528 210.374 69.79 210.374H81.291C81.554 210.374 81.766 210.587 81.766 210.849C81.766 211.111 81.553 211.324 81.291 211.324Z" fill="#E45348"/>
    <path d="M81.291 213.619H69.79C69.527 213.619 69.315 213.406 69.315 213.144C69.315 212.882 69.528 212.669 69.79 212.669H81.291C81.554 212.669 81.766 212.882 81.766 213.144C81.766 213.406 81.553 213.619 81.291 213.619Z" fill="#E45348"/>
    <path d="M179.282 49.536C172.099 45.515 164.956 41.826 157.872 38.626C161.121 33.094 163.761 27.843 165.737 22.933C170.419 24.39 176.507 25.203 183.054 25.804C181.123 32.584 180.016 40.746 179.282 49.536Z" fill="#E45348"/>
    <path d="M158.132 38.842L157.79 38.513C164.495 31.531 173.472 26.979 183.067 25.698L183.13 26.169C173.64 27.436 164.763 31.936 158.132 38.842Z" fill="#283474"/>
    <path d="M166.073 22.8886L165.649 23.1026L179.037 49.6357L179.461 49.4217L166.073 22.8886Z" fill="#283474"/>
    <path d="M205.078 69.243C206.269 70.535 208.381 70.578 209.962 69.812C211.543 69.047 212.713 67.652 213.817 66.285C212.848 67.193 211.5 67.682 210.175 67.607C208.85 67.532 207.565 66.894 206.705 65.883C205.889 64.925 205.456 63.673 204.569 62.779C203.363 61.565 201.495 61.221 199.799 61.446C198.103 61.671 196.517 62.387 194.934 63.037C193.351 63.688 191.697 64.289 189.986 64.264C187.219 64.224 184.565 62.372 183.573 59.789C182.882 57.99 182.963 55.999 182.617 54.103C182.271 52.207 181.272 50.192 179.427 49.636C180.657 50.443 180.753 52.172 180.773 53.643C180.818 56.831 181.156 60.136 182.773 62.883C184.39 65.631 187.583 67.667 190.712 67.053C193.448 66.516 195.607 64.139 198.38 63.846C200.407 63.632 202.514 64.696 203.546 66.454C204.085 67.372 204.356 68.46 205.078 69.243Z" fill="#FAB01E"/>
    <path d="M180.629 57.707C181.834 59.175 183.615 60.051 185.417 60.649C187.219 61.247 189.097 61.61 190.871 62.287C192.645 62.964 194.361 64.011 195.361 65.624C196.023 66.693 196.33 67.936 196.783 69.109C197.236 70.282 197.902 71.457 199.008 72.054C198.258 70.459 197.966 68.695 197.536 66.985C197.107 65.275 196.497 63.54 195.263 62.28C193.729 60.714 191.476 60.119 189.319 59.73C187.162 59.341 184.913 59.067 183.032 57.941C180.591 56.48 179.083 53.587 179.286 50.749C178.698 53.128 179.075 55.814 180.629 57.707Z" fill="#FAB01E"/>
    <path d="M353.932 188.203H346.43V278.403H353.932V188.203Z" fill="#FEFEED"/>
    <path d="M357.604 188.203H350.102V278.403H357.604V188.203Z" fill="#283474"/>
    <path d="M213.578 88.662C215.416 86.652 217.914 85.365 220.461 84.402C228.251 81.454 237.037 81.27 244.974 83.771C247.829 84.671 249.971 87.023 250.637 89.941C252.174 96.685 254.345 103.285 257.114 109.623C240.481 105.521 222.899 105.316 206.175 109.031C209.842 102.722 208.654 94.047 213.578 88.662Z" fill="#FAB01E"/>
    <path d="M210.133 95.483C208.885 99.98 208.523 104.989 206.173 109.03C222.897 105.316 240.479 105.52 257.112 109.622C254.782 104.286 252.88 98.765 251.418 93.129C238.528 87.234 222.522 88.391 210.133 95.483Z" fill="#E45348"/>
    <path d="M247.953 125.292C252.039 123.863 256.062 121.912 259.036 118.768C262.011 115.623 263.79 111.103 262.802 106.888C261.653 101.988 257.185 98.595 252.663 96.386C240.309 90.35 225.223 90.224 212.769 96.051C206.674 98.903 200.723 103.975 200.339 110.694C200.062 115.547 202.898 120.21 206.807 123.099C210.716 125.988 215.565 127.325 220.377 128.005C229.61 129.308 239.151 128.369 247.953 125.292Z" fill="#FAB01E"/>
    <path d="M242.348 124.535C245.179 123.373 247.966 121.786 250.026 119.229C252.087 116.671 253.319 112.994 252.635 109.567C251.839 105.581 248.744 102.822 245.611 101.025C237.052 96.116 226.601 96.013 217.973 100.752C213.75 103.072 209.628 107.197 209.362 112.662C209.17 116.609 211.134 120.402 213.843 122.751C216.551 125.101 219.91 126.189 223.245 126.741C229.64 127.802 236.25 127.038 242.348 124.535Z" fill="#111A32"/>
    <path d="M166.662 71.79H165.711V269.604H166.662V71.79Z" fill="#283474"/>
    <path d="M285.736 239.458C285.346 241.728 283.929 245.374 281.983 246.804C278.949 249.033 274.888 249.903 270.876 250.379C263.419 251.264 255.73 250.982 248.212 251.593C240.694 252.204 233.11 253.818 227.488 257.98C222.821 261.436 219.821 266.969 220.381 272.567L311.152 280.278C319.501 280.329 322.832 278.203 325.827 272.704C329.619 265.74 329.571 247.242 326.396 239.458H285.736Z" fill="#111A32"/>
    <path d="M263.06 238.161C262.67 240.698 265.833 244.352 263.887 245.95C260.854 248.441 256.792 249.413 252.78 249.945C245.323 250.934 237.634 250.619 230.116 251.302C222.597 251.985 215.013 253.789 209.392 258.44C204.725 262.302 201.725 268.486 202.285 274.742L293.056 283.36C301.404 283.417 304.736 281.041 307.731 274.896C311.523 267.113 311.475 248.158 308.3 239.459L263.06 238.161Z" fill="#283474"/>
    <path d="M260.065 162.818C266.864 160.243 273.672 156.989 275.648 149.992C276.62 146.551 276.063 139.771 273.269 137.539C270.764 135.538 267.228 135.569 264.047 135.969C256.969 136.86 250.137 139.087 243.162 140.585C229.246 143.573 214.723 143.515 200.788 140.633C200.233 146.535 197.467 152.834 195.742 158.496C199.308 159.943 204.082 161.536 207.78 162.636C224.738 167.678 243.52 169.084 260.065 162.818Z" fill="#E45348"/>
    <path d="M196.958 157.902C198.683 152.24 200.234 146.536 200.788 140.634C189.745 138.35 175.023 131.501 164.418 125.164C163.24 122.175 160.177 119.972 158.081 115.608C156.284 111.865 155.363 112.25 153.046 108.804C152.26 109.126 151.848 110.223 151.899 111.071C151.95 111.919 152.251 112.75 152.689 113.478C154.415 116.35 154.152 117.098 154.713 119.649C154.748 120.12 154.512 120.445 153.707 120.55C150.008 118.154 147.983 116.411 143.856 112.502C143.322 111.996 142.461 111.56 141.882 112.014C141.329 112.447 141.566 113.248 141.963 113.888C141.459 113.306 140.758 112.898 140 112.762C139.388 112.652 138.877 113.227 138.993 113.838C139.101 114.406 139.339 114.95 139.688 115.411C138.695 115.488 138.26 116.075 138.512 117.038C138.764 118.001 139.246 119.03 139.987 119.695C139.429 119.42 138.458 119.721 138.352 120.333C138.246 120.946 138.935 122.171 139.293 122.679C142.543 127.284 145.316 130.716 150.057 133.205C152.404 134.437 154.928 135.163 157.198 135.401C158.283 135.515 159.327 135.853 160.233 136.46C171.488 143.99 185.786 153.371 196.958 157.902Z" fill="#FC9F91"/>
    <path d="M199.691 161.161C200.203 161.013 200.471 160.465 200.673 159.972C203.053 154.173 204.807 148.117 205.895 141.943C206.014 141.266 206.094 140.475 205.617 139.98C205.352 139.705 204.969 139.587 204.603 139.478C202.992 139.001 201.381 138.524 199.77 138.046C198.801 137.759 197.794 138.32 197.514 139.291C195.886 144.939 193.918 150.488 191.624 155.9C191.109 157.115 191.702 158.511 192.943 158.96L198.592 161.007C198.946 161.136 199.329 161.266 199.691 161.161Z" fill="#FAB01E"/>
    <path d="M251.325 141.568C253.811 140.115 256.356 138.666 258.913 137.249C267.147 132.683 277.389 133.455 284.653 139.444C297.105 149.709 306.594 163.526 313.563 178.312C322.814 197.938 327.672 219.3 332.228 240.514C307.489 240.511 287.243 240.938 262.504 240.936C259.846 215.889 251.36 192.181 242.01 168.761C237.967 158.633 241.911 147.071 251.325 141.568Z" fill="#FAB01E"/>
    <path d="M253.859 141.205C248.503 145.828 245.127 152.671 244.717 159.734C244.524 163.057 244.983 166.473 246.481 169.445C247.979 172.417 250.593 174.903 253.79 175.831C258.672 177.248 264.063 174.77 267.306 170.855C270.549 166.94 271.999 161.852 272.855 156.841C273.495 153.096 273.841 149.196 272.806 145.541C271.771 141.886 269.111 138.498 265.442 137.511C261.367 136.413 257.054 138.447 253.859 141.205Z" fill="#283474"/>
    <path d="M333.121 238.697H260.9V243.746H333.121V238.697Z" fill="#E45348"/>
    <path d="M264.61 141.627C264.333 141.289 264.037 140.994 263.73 140.732C263.723 140.728 263.716 140.721 263.709 140.717C263.387 140.446 263.049 140.222 262.701 140.032C256.789 135.777 249.912 126.29 246.876 119.815C243.477 122.127 238.822 129.497 237.488 134.343C240.959 139.238 244.991 145.248 248.343 151.009C247.131 155.082 247.072 159.586 248.053 163.747C248.937 167.497 251.291 171.456 254.648 171.412C256.796 171.383 258.651 169.691 260.115 167.871C264.41 162.533 266.908 155.305 266.978 148.01C267.003 145.536 266.081 143.422 264.61 141.627Z" fill="#FC9F91"/>
    <path d="M248.212 139.134C251.099 133.36 249.35 126.662 245.649 120.818C242.441 123.809 238.668 130.059 237.489 134.343C239.383 137.015 241.443 140.022 243.47 143.136C245.468 142.703 247.152 141.606 248.212 139.134Z" fill="#111A32"/>
    <path d="M247.255 121.663C249.735 118.728 250.441 114.498 249.407 110.796C248.373 107.095 245.728 103.948 242.449 101.943C239.17 99.939 235.299 99.023 231.458 98.934C227.307 98.837 223.112 99.691 219.42 101.591C215.728 103.491 212.558 106.454 210.592 110.111C209.288 112.536 208.566 115.64 210.046 117.962C210.892 119.288 212.327 120.132 213.801 120.682C218.114 122.293 222.883 121.754 227.48 121.498C233.361 121.17 239.269 121.343 245.12 122.014L247.255 121.663Z" fill="#E45348"/>
    <path d="M248.548 118.373C249.675 116.599 250.343 114.355 250.165 112.231C249.966 109.862 247.536 105.871 244.892 108.336C243.707 106.069 242.192 103.987 240.549 102.941C234.281 98.951 225.226 100.13 220.658 102.339C216.09 104.548 210.634 110.09 211.435 116.001C213.409 119.306 213.504 122.342 217.017 123.927C216.989 125.88 217.3 129.821 217.273 131.775C217.268 132.134 217.265 132.504 217.405 132.835C217.791 133.75 219.006 133.914 219.997 133.861C220.741 133.821 221.577 133.772 222.224 134.065C223.033 135.419 223.841 136.772 224.65 138.126C224.911 138.563 226.31 139.385 226.571 139.822C227.201 140.877 226.694 141.548 227.324 142.604C227.975 143.693 228.674 144.831 229.792 145.454C231.994 146.682 234.72 145.438 236.921 144.207C242.387 141.15 246.734 138.746 248.201 132.732C249.221 128.55 247.329 124.306 247.073 120.084C247.649 119.598 248.143 119.011 248.548 118.373Z" fill="#FC9F91"/>
    <path d="M203.305 116.083C204.844 116.37 206.513 115.831 207.593 114.697C205.101 113.589 203.147 111.334 202.406 108.71C204.629 109.588 207.256 109.367 209.301 108.129C208.451 107.731 207.803 106.926 207.594 106.011C210.803 104.939 213.722 103.155 216.841 101.845C219.96 100.535 223.474 99.705 226.718 100.664C222.586 101.22 218.681 103.325 215.945 106.471C213.209 109.617 211.666 113.776 211.689 117.945C208.859 119.041 205.405 118.273 203.305 116.083Z" fill="#E45348"/>
    <path d="M239.516 108.952C238.188 109.243 236.86 109.533 235.532 109.824C238.439 111.148 240.728 113.766 241.652 116.824C242.675 116.461 243.817 116.441 244.853 116.768C244.214 114.64 243.571 112.494 243.381 110.28C243.191 108.066 243.484 105.752 244.611 103.838C239.888 99.838 233.272 98.179 227.22 99.478C228.611 103.323 232.546 106.098 236.635 106.118C235.167 106.378 233.699 106.639 232.231 106.899C234.609 107.745 237.045 108.431 239.516 108.952Z" fill="#E45348"/>
    <path d="M229.313 113.503C229.418 113.234 229.523 112.966 229.63 112.698C227.945 111.926 225.988 111.738 224.2 112.236C221.788 112.907 219.75 114.801 218.903 117.158C219.424 117.394 219.945 117.63 220.465 117.866C220.931 115.724 222.593 113.884 224.677 113.202C226.186 112.708 227.872 112.844 229.313 113.503Z" fill="#111A32"/>
    <path d="M224.399 118.156C224.247 117.763 223.984 117.362 223.573 117.265C223.066 117.146 222.554 117.58 222.43 118.086C222.305 118.591 222.477 119.124 222.717 119.586C222.888 119.916 223.108 120.241 223.435 120.417C223.762 120.593 224.219 120.575 224.457 120.289C224.613 120.102 224.649 119.842 224.654 119.598C224.663 119.107 224.577 118.614 224.399 118.156Z" fill="#111A32"/>
    <path d="M231.54 128.598C231.385 127.368 230.519 125.929 229.501 125.431C229.266 125.316 229.035 125.558 229.151 125.792C229.525 126.546 229.497 127.462 229.378 128.279C229.245 129.191 228.76 130.011 228.043 130.59C227.122 131.334 226.363 131.871 225.245 132.143C224.737 132.267 224.211 132.36 223.755 132.616C223.631 132.686 223.515 132.773 223.409 132.871C222.71 133.013 222.138 133.608 221.965 134.306C221.781 135.045 221.991 135.845 222.412 136.48C222.833 137.115 223.731 137.293 224.387 137.681C224.821 136.498 225.598 135.972 226.674 135.317C227.75 134.662 228.913 134.102 229.782 133.189C230.831 132.084 231.73 130.111 231.54 128.598Z" fill="#111A32"/>
    <path d="M212.157 200.387C212.319 201.792 212.492 203.249 213.234 204.452C213.976 205.656 215.465 206.525 216.81 206.089C217.9 205.736 218.603 204.623 218.804 203.495C219.005 202.367 218.794 201.21 218.584 200.084C216.344 188.078 214.103 176.072 211.863 164.066C210.172 164.668 208.304 164.764 206.56 164.339C208.897 176.275 210.764 188.303 212.157 200.387Z" fill="#283474"/>
    <path d="M258.729 190.104C256.351 193.037 255.402 194.698 251.917 198.184C251.287 198.814 249.162 200.817 248.273 200.877C245.821 201.042 243.837 198.817 241.302 196.283C231.526 184.933 225.251 175.547 219.837 165.174C218.612 161.768 217.388 158.362 216.163 154.956C215.771 153.865 215.356 152.738 214.543 151.912C212.924 150.267 210.198 150.242 208.157 149.273C206.962 148.705 205.552 148.942 204.544 149.799C203.783 150.446 203.003 151.069 202.205 151.669C201.007 152.569 200.427 154.14 200.971 155.537C201.584 157.111 201.168 159.874 200.072 161.315C199.892 161.552 199.836 161.868 199.912 162.156C200.432 164.125 201.502 164.999 203.293 166.285C205.234 167.679 206.784 168.48 208.457 170.187C208.867 170.605 209.523 171.106 210.251 171.58C210.911 172.01 211.22 176.178 211.411 177.044C211.854 179.054 212.317 181.059 212.809 183.057C216.81 199.291 222.945 217.088 237.669 226.648C238.655 227.289 239.67 227.886 240.707 228.439C241.707 228.972 242.761 229.476 243.891 229.554C245.608 229.672 247.119 228.603 248.696 227.913C260.073 222.934 269.856 215.44 276.181 205.626C271.038 202.344 263.367 194.066 258.729 190.104Z" fill="#FC9F91"/>
    <path d="M249.43 193.661C248.702 194.728 248.639 196.103 248.662 197.394C248.775 203.683 250.457 210.097 254.344 215.043C258.232 219.988 264.525 223.242 270.779 222.562C270.366 220.764 271.416 218.961 272.613 217.557C273.81 216.153 275.24 214.851 275.83 213.103C276.356 211.547 276.138 209.84 275.768 208.24C273.423 198.089 264.704 189.709 254.468 187.769C254.899 189.08 253.859 190.424 252.716 191.196C251.572 191.969 250.207 192.521 249.43 193.661Z" fill="#FAB01E"/>
    <path d="M286.577 194.001C290.657 188.091 294.789 182.127 297.443 175.454C300.097 168.781 301.175 161.231 298.982 154.392C296.789 147.554 290.861 141.677 283.722 140.899L278.786 140.533C273.059 142.613 268.827 147.691 266.387 153.273C263.947 158.855 263.062 164.972 262.205 171.004C261.348 177.036 260.471 183.153 258.044 188.741C256.717 191.797 254.383 193.02 252.55 195.809C253.427 200.95 256.425 207.666 259.45 211.901C262.975 216.013 268.152 218.454 273.56 219.141C274.32 216.966 275 214.746 275.821 212.608C278.398 205.903 282.498 199.911 286.577 194.001Z" fill="#E45348"/>
    <path d="M199.275 139.576C198.043 137.562 197.29 135.286 196.66 133.126C193.844 123.468 193.154 114.572 194.602 106.656C194.769 106.655 194.937 106.65 195.103 106.637C195.365 106.617 195.561 106.389 195.541 106.127C195.521 105.865 195.301 105.673 195.031 105.689C194.954 105.695 194.875 105.687 194.797 105.69C194.841 105.475 194.881 105.258 194.928 105.045L194.001 104.837C193.94 105.108 193.89 105.384 193.834 105.657C191.794 105.444 189.733 104.332 188.139 102.522C186.627 100.805 185.516 98.59 184.538 95.34C182.687 89.192 182.159 82.672 181.649 76.365C181.637 76.21 181.548 76.071 181.414 75.992C181.279 75.914 181.114 75.907 180.973 75.973C179.296 76.759 177.138 76.556 175.342 75.442C173.792 74.48 172.49 72.869 171.577 70.783C170.774 68.947 170.338 66.969 169.891 64.759C169.845 64.532 169.628 64.365 169.411 64.378C169.179 64.385 168.987 64.558 168.955 64.787C168.67 66.816 168.092 68.788 167.234 70.648C167.084 70.972 166.903 71.33 166.633 71.476C166.535 71.529 166.387 71.535 166.281 71.49C166.255 71.479 166.21 71.455 166.201 71.422C166.131 71.168 165.868 71.019 165.617 71.09C165.364 71.159 165.215 71.421 165.285 71.674C165.37 71.985 165.591 72.23 165.908 72.365C166.283 72.525 166.734 72.505 167.087 72.313C167.612 72.028 167.884 71.51 168.097 71.047C168.666 69.813 169.118 68.531 169.448 67.217C169.775 68.602 170.157 69.907 170.707 71.164C171.697 73.427 173.127 75.186 174.841 76.25C176.695 77.401 178.9 77.7 180.753 77.083C181.253 83.238 181.811 89.58 183.627 95.614C184.647 99.001 185.819 101.326 187.425 103.151C189.154 105.114 191.4 106.341 193.647 106.603C192.2 114.638 192.902 123.638 195.747 133.393C196.395 135.616 197.173 137.964 198.464 140.073C199.459 141.699 201.205 143.865 203.872 144.953L204.231 144.073C201.804 143.082 200.196 141.08 199.275 139.576Z" fill="#283474"/>
    <path d="M211.472 136.221C210.496 136.271 207.422 136.429 206.446 136.479C204.438 136.582 203.09 140.023 203.434 144.165C203.779 148.306 205.686 151.58 207.694 151.477C208.67 151.427 211.744 151.269 212.72 151.219C214.728 151.116 216.076 147.675 215.732 143.533C215.388 139.392 213.48 136.118 211.472 136.221Z" fill="#283474"/>
    <path d="M213.959 141.623L217.539 141.135C218.058 141.064 218.542 141.409 218.645 141.922L222.112 159.145C222.231 159.734 221.802 160.293 221.202 160.331L221.182 160.332C220.695 160.362 220.258 160.034 220.152 159.558L217.17 146.193C217.054 145.672 216.546 145.337 216.022 145.434L214.595 145.698C214.044 145.8 213.518 145.426 213.434 144.871L213.113 142.754C213.03 142.207 213.411 141.698 213.959 141.623Z" fill="#283474"/>
    <path d="M224.758 160.042C224.169 160.115 223.588 160.28 222.994 160.274C222.4 160.267 221.76 160.045 221.461 159.532C221.15 158.997 221.308 158.279 221.714 157.813C222.12 157.347 222.724 157.097 223.329 156.968C223.934 156.839 224.556 156.814 225.166 156.711C225.953 156.578 226.727 156.314 227.525 156.338C228.323 156.362 229.188 156.772 229.416 157.536C229.611 158.19 229.266 158.918 228.724 159.332C228.182 159.747 227.483 159.899 226.802 159.949C226.122 159.999 225.435 159.958 224.758 160.042Z" fill="#283474"/>
    <path d="M208.288 157.301C209.779 157.301 210.92 155.954 210.65 154.488C207.814 139.073 202.862 121.765 197.695 106.749C192.142 90.61 186.904 79.011 175.921 67.711C174.54 66.29 172.168 64.406 170.298 64.297C167.077 64.11 165.559 67.023 165.763 72.187H166.282C166.282 72.187 166.076 63.991 170.528 65.101C174.98 66.21 184.646 80.933 189.641 93.212C198.462 114.892 204.194 144.607 205.872 155.286C206.055 156.451 207.059 157.303 208.238 157.303H208.288V157.301Z" fill="#283474"/>
    <path d="M186.077 232.5C186.077 232.5 175.978 230.587 169.858 228.598C169.858 228.598 182.864 198.608 183.323 189.58L205.204 201.056C205.204 201.056 190.974 215.286 186.077 232.5Z" fill="#FAB01E"/>
    <path d="M197.553 182.006L192.504 184.531L176.667 223.778L184.7 232.385L186.077 232.5L197.553 182.006Z" fill="white"/>
    <path d="M197.553 182.006L205.203 201.056C205.203 201.056 189.06 221.483 186.077 232.5L176.667 223.778C176.667 223.778 191.127 201.286 197.553 182.006Z" fill="#283474"/>
    <path d="M137.578 256.243C142.522 255.522 147.559 255.442 152.523 256.007C154.848 256.272 157.304 256.748 159.004 258.356C160.777 260.033 161.36 262.597 161.647 265.02C162.016 268.138 162.037 271.297 161.711 274.419L139.777 274.378C138.755 268.474 137.269 262.229 137.578 256.243Z" fill="#E45348"/>
    <path d="M94.5939 274.384C96.3969 277.71 98.7669 280.916 102.176 282.798C106.282 285.064 111.408 285.108 116.013 284.004C120.619 282.9 124.856 280.753 129.132 278.789C133.865 276.615 138.784 276.351 144.315 275.029C142.729 269.35 141.538 261.26 142.159 255.416C134.52 255.248 126.844 255.281 119.287 256.349C111.73 257.418 104.26 259.556 97.753 263.353C95.837 264.471 93.8939 265.878 93.2489 267.922C92.5679 270.079 93.5079 272.38 94.5939 274.384Z" fill="#111A32"/>
    <path d="M139.024 179.867C138.732 179.276 138.214 178.833 137.707 178.412C135.361 176.467 132.934 174.62 130.435 172.876C130.307 180.155 127.013 187.324 121.574 192.162C126.096 193.026 130.457 194.726 134.37 197.152C134.926 192.698 136.237 188.34 138.231 184.319C138.927 182.916 139.717 181.272 139.024 179.867Z" fill="#FC9F91"/>
    <path d="M146.987 156.364C143.126 153.355 137.995 152.55 133.27 153.535C124.314 155.403 117.19 164.042 119.086 173.364C120.279 179.23 125.019 184.225 130.815 185.724C131.977 186.024 133.332 186.462 134.478 186.818C136.326 187.392 135.857 187.792 137.673 188.462C140.801 189.616 145.177 190.17 148.299 189.003C149.48 188.562 150.698 186.989 151.298 185.704C152.021 184.154 152.14 183.462 152.326 182.234C152.54 180.82 152.534 180.473 153.311 179.664C154 178.946 154.641 179.037 154.969 178.097C155.332 177.055 154.317 176.11 153.679 175.21C152.121 173.009 152.697 170.03 152.598 167.335C152.442 163.097 150.332 158.971 146.987 156.364Z" fill="#FC9F91"/>
    <path d="M142.829 170.37C143.62 167.808 144.033 164.914 142.8 162.533C141.404 159.839 138.314 158.54 135.414 157.647C132.735 156.822 129.947 156.156 127.153 156.379C123.49 156.671 119.983 158.563 117.728 161.464C115.473 164.365 114.504 168.23 115.124 171.851C115.755 175.538 117.905 178.781 120.262 181.686C121.106 182.727 122.014 183.765 123.202 184.385C124.682 185.157 126.444 185.196 128.093 184.933C131.687 184.359 134.996 182.426 137.506 179.791C140.015 177.155 141.755 173.847 142.829 170.37Z" fill="#E45348"/>
    <path d="M143.564 170.706C143.109 169.8 142.554 168.922 141.778 168.268C141.003 167.614 139.98 167.203 138.974 167.334C138.005 167.461 137.151 168.074 136.544 168.84C135.49 170.171 135.11 172.03 135.633 173.645C136.156 175.26 137.594 176.563 139.267 176.851C140.94 177.139 142.767 176.358 143.654 174.91L143.564 170.706Z" fill="#FC9F91"/>
    <path d="M156.373 152.025C155.926 153.509 154.65 154.714 153.143 155.076C154.799 155.336 156.548 154.952 157.943 154.021C157.028 157.208 155.03 160.084 152.326 162.005C149.623 163.926 146.227 164.867 142.926 164.552C138.9 164.168 135.286 162.034 131.763 160.046C128.24 158.059 123.513 159.679 118.569 160.756C117.363 157.865 123.419 150.831 131.846 149.959C136.045 149.525 139.089 150.152 143.146 151.319C145.253 151.925 147.761 152.949 149.946 153.126C152.133 153.303 154.634 153.36 156.373 152.025Z" fill="#E45348"/>
    <path d="M151.991 165.421C151.736 165.047 151.572 164.612 151.515 164.163C149.435 164.987 147.818 166.891 147.341 169.077C147.591 169.219 147.803 169.427 147.949 169.676C148.611 167.771 150.123 166.18 151.991 165.421Z" fill="#283474"/>
    <path d="M150.8 173.935C151.161 173.851 151.292 173.412 151.336 173.044C151.39 172.591 151.41 172.134 151.396 171.679C151.39 171.475 151.375 171.266 151.291 171.08C151.207 170.894 151.04 170.733 150.837 170.712C150.45 170.671 150.199 171.111 150.104 171.489C149.988 171.952 149.943 172.433 149.971 172.91C149.986 173.161 150.024 173.42 150.161 173.632C150.298 173.842 150.555 173.992 150.8 173.935Z" fill="#283474"/>
    <path d="M149.848 183.434C150.437 183.145 150.759 182.451 150.722 181.797C149.263 182.082 147.672 181.549 146.68 180.442C146.81 180.987 146.941 181.536 147.176 182.045C147.411 182.553 147.76 183.025 148.241 183.313C148.722 183.6 149.345 183.681 149.848 183.434Z" fill="white"/>
    <path d="M109.154 197.114C104.607 200.554 101.655 205.677 99.254 210.848C91.522 227.503 88.285 246.219 89.977 264.503C93.955 288.416 119.33 256.742 134.516 257.474C128.424 229.418 137.298 227.934 141.356 210.748C143.541 201.493 136.702 192.416 127.197 192.123C127.134 192.121 127.071 192.119 127.008 192.118C120.71 191.951 114.178 193.313 109.154 197.114Z" fill="#FAB01E"/>
    <path d="M86.933 269.459C87.3 270.108 87.938 270.566 88.327 271.202C88.847 272.053 88.861 273.105 89.066 274.08C89.423 275.775 90.4199 277.328 91.8119 278.358C92.0529 278.536 92.343 278.707 92.634 278.637C92.984 278.553 93.16 278.173 93.293 277.839C96.453 269.874 102.289 263.107 109.313 258.198C116.337 253.289 124.513 250.174 132.903 248.429C133.487 247.999 133.332 247.015 132.785 246.539C132.238 246.063 131.47 245.96 130.748 245.889C122.479 245.083 113.969 245.938 106.273 249.066C98.5769 252.195 91.74 257.685 87.629 264.904C86.832 266.303 86.14 268.058 86.933 269.459Z" fill="#E45348"/>
    <path d="M115.468 200.663C111.953 205.625 112.221 212.738 115.516 217.849C118.811 222.96 124.734 226.071 130.786 226.665C122.24 220.767 116.484 210.996 115.468 200.663Z" fill="#283474"/>
    <path d="M137.603 200.958C137.131 201.414 136.372 200.947 135.884 200.509C131.638 196.702 126.021 194.458 120.321 194.292C118.977 194.253 117.427 194.235 116.582 193.19C118.227 191.026 120.998 189.911 123.715 189.817C126.432 189.723 129.107 190.545 131.584 191.665C133.371 192.473 135.124 193.471 136.394 194.965C137.664 196.459 138.385 198.53 137.872 200.422C137.819 200.618 137.748 200.817 137.603 200.958Z" fill="#283474"/>
    <path d="M179.181 295.949C181.487 296.016 183.768 296.442 186.069 296.602C188.37 296.762 190.759 296.638 192.851 295.668C194.003 295.134 195.15 294.125 195.063 292.858C194.985 291.725 193.95 290.904 192.923 290.419C190.569 289.307 187.868 289.175 185.272 289.377C182.676 289.579 180.109 290.096 177.508 290.207C173.319 290.387 169.145 289.513 164.954 289.595C163.79 289.618 162.593 289.724 161.553 290.248C160.513 290.772 159.657 291.799 159.639 292.963C159.624 293.972 160.24 294.914 161.06 295.502C161.88 296.09 162.88 296.37 163.874 296.543C168.918 297.421 174.063 295.8 179.181 295.949Z" fill="#E45348"/>
    <path d="M194.372 291.17C194.1 289.049 191.294 288.503 187.814 287.185C183.157 285.421 182.019 284.483 178.182 282.034C173.207 278.858 171.518 274.742 169.608 269.967C164.527 257.265 163.662 255.789 159.588 245.411C158.737 243.244 155.342 237.457 153.303 236.334C146.456 232.565 138.352 235.254 131.837 238.411C130.824 238.902 129.82 239.412 128.821 239.931C130.957 247.918 133.866 255.586 137.196 263.007C137.635 262.601 138.085 262.194 138.56 261.782C139.765 260.736 143.642 257.176 145.193 257.548C146.588 257.883 147.169 260.512 148.58 263.334C151.083 268.339 153.129 270.401 156.201 275.048C158.668 278.779 162.796 283.709 160.746 287.956C160.338 288.802 160.138 289.733 160.243 290.666C160.564 293.502 161.985 295.195 173.419 294.418C185.686 293.584 182.131 295.973 192.975 293.164C193.866 292.933 194.489 292.083 194.372 291.17Z" fill="#FC9F91"/>
    <path d="M110.481 249.724C105.518 252.082 100.548 254.644 96.362 258.254C91.855 262.14 92.192 268.047 92.375 273.994C92.587 280.86 99.606 286.401 106.113 286.267C118.643 286.01 119.737 279.999 125.011 275.33C129.851 271.045 133.294 267.05 138.628 263.55C135.298 256.129 132.014 247.12 129.878 239.133C123.736 242.324 116.75 246.746 110.481 249.724Z" fill="#283474"/>
    <path d="M189.675 210.282C190.083 209.99 190.515 209.71 190.808 209.303C191.101 208.896 191.224 208.318 190.958 207.893C190.635 207.378 189.928 207.303 189.321 207.282C187.843 207.232 186.353 207.183 184.897 207.436C183.44 207.689 182.001 208.269 180.959 209.318C180.064 210.219 179.544 211.384 179.255 212.63C174.769 215.271 170.204 217.882 165.194 219.272C159.94 220.73 154.05 220.714 149.306 218.025C148.678 217.669 148.089 217.261 147.517 216.832C143.674 222.081 138.988 226.668 133.84 230.709C134.674 231.268 135.521 231.808 136.395 232.308C142.111 235.576 148.788 237.437 155.321 236.618C165.181 235.382 173.085 228.523 180.777 222.033C181.341 222.1 181.906 222.215 182.466 222.302C183.602 222.479 184.859 222.512 185.797 221.847C186.807 221.131 187.254 219.731 188.388 219.231C188.819 219.041 189.36 218.968 189.597 218.561C189.911 218.023 189.451 217.377 189.367 216.76C189.271 216.057 189.677 215.398 190.014 214.774C190.351 214.15 190.632 213.381 190.3 212.754C189.941 212.075 188.92 211.616 189.147 210.882C189.226 210.622 189.454 210.44 189.675 210.282Z" fill="#FC9F91"/>
    <path d="M137.364 227.781C136.216 228.787 135.041 229.764 133.837 230.709C134.671 231.268 135.518 231.808 136.392 232.308C142.108 235.576 148.785 237.437 155.318 236.618C162.216 235.754 168.155 232.134 173.736 227.817C161.69 235.751 148.063 237.915 137.364 227.781Z" fill="#283474"/>
    <path d="M147.515 216.832C144.453 214.534 142.13 211.294 139.953 208.1C137.369 204.31 134.739 200.373 130.898 197.864C127.058 195.355 121.627 194.654 118.018 197.487C114.731 200.068 113.879 204.883 114.963 208.919C116.047 212.955 118.711 216.363 121.478 219.496C125.17 223.676 129.776 228.415 134.399 231.51C139.548 227.468 143.672 222.08 147.515 216.832Z" fill="#E45348"/>
    <path d="M156.115 144.749C153.38 140.072 143.204 142.717 139.161 143.613C133.342 144.903 127.729 147.126 122.615 150.189C118.296 152.776 112.955 156.049 110.713 160.75C108.981 164.382 109.18 169.435 111.324 172.843C112.061 174.014 113.039 175.019 114.221 175.744C117.943 178.028 122.752 177.291 126.898 175.923C139.104 171.895 149.576 162.866 155.358 151.387C156.406 149.31 157.29 146.758 156.115 144.749Z" fill="#283474"/>
    <path d="M135.973 137.698C128.12 135.808 119.279 139.051 114.51 145.57C109.902 151.871 109.595 161.532 115.087 167.08C115.971 167.974 116.985 168.75 118.122 169.285C122.11 171.161 126.883 169.798 130.752 167.686C135.712 164.979 140.01 161.069 143.174 156.388C144.949 153.762 146.41 150.703 146.121 147.547C145.662 142.533 140.868 138.877 135.973 137.698Z" fill="#283474"/>
    <path d="M143.137 157.547C139.567 163.046 134.315 167.539 128.123 169.694C124.998 170.782 121.528 171.259 118.39 170.211C115.251 169.163 112.573 166.322 112.455 163.015C113.511 165.29 116.004 166.655 118.499 166.916C120.994 167.176 123.494 166.488 125.829 165.572C130.708 163.658 135.178 160.708 138.856 156.974C140.648 155.155 142.266 153.132 143.37 150.829C144.474 148.527 145.044 145.925 144.696 143.395C146.147 145.458 146.515 148.15 146.09 150.636C145.665 153.124 144.51 155.431 143.137 157.547Z" fill="#FAB01E"/>
</svg>
