<svg width="430" height="443" viewBox="0 0 430 443" fill="none" xmlns="http://www.w3.org/2000/svg">
    <g clip-path="url(#clip0_861_1463)">
        <path d="M259.314 311.186C301.929 268.571 301.93 199.479 259.315 156.864C216.701 114.25 147.608 114.25 104.994 156.865C62.3787 199.48 62.3784 268.572 104.993 311.186C147.607 353.801 216.7 353.801 259.314 311.186Z" fill="#C6DAFA"/>
        <path d="M259.314 311.186C301.929 268.571 301.93 199.479 259.315 156.864C216.701 114.25 147.608 114.25 104.994 156.865C62.3787 199.48 62.3784 268.572 104.993 311.186C147.607 353.801 216.7 353.801 259.314 311.186Z" fill="#C6DAFA"/>
        <path d="M393.057 77.0632H312.804V204.197H393.057V77.0632Z" fill="#C6DAFA"/>
        <g clip-path="url(#clip1_861_1463)">
            <path d="M330 156C332.761 156 335 153.761 335 151C335 148.238 332.761 146 330 146C327.239 146 325 148.238 325 151C325 153.761 327.239 156 330 156Z" fill="#FFC552"/>
            <path d="M330 144C329.448 144 329 143.591 329 143.087V140.913C329 140.409 329.448 140 330 140C330.552 140 331 140.409 331 140.913V143.087C331 143.591 330.552 144 330 144Z" fill="#FFC552"/>
            <path d="M335.815 146C335.606 146 335.398 145.92 335.239 145.761C334.92 145.443 334.92 144.927 335.239 144.609L336.609 143.238C336.928 142.92 337.443 142.92 337.761 143.238C338.08 143.556 338.08 144.072 337.761 144.39L336.391 145.761C336.231 145.92 336.023 146 335.815 146Z" fill="#FFC552"/>
            <path d="M340.087 152H337.913C337.409 152 337 151.552 337 151C337 150.448 337.409 150 337.913 150H340.087C340.591 150 341 150.448 341 151C341 151.552 340.591 152 340.087 152Z" fill="#FFC552"/>
            <path d="M337.185 159C336.977 159 336.768 158.894 336.609 158.682L335.239 156.854C334.92 156.43 334.92 155.742 335.239 155.318C335.557 154.894 336.072 154.894 336.391 155.318L337.761 157.146C338.08 157.57 338.08 158.258 337.761 158.682C337.602 158.894 337.394 159 337.185 159Z" fill="#FFC552"/>
            <path d="M330 162C329.448 162 329 161.591 329 161.087V158.913C329 158.409 329.448 158 330 158C330.552 158 331 158.409 331 158.913V161.087C331 161.591 330.552 162 330 162Z" fill="#FFC552"/>
            <path d="M323.086 159C322.808 159 322.53 158.894 322.318 158.682C321.894 158.257 321.894 157.57 322.318 157.146L324.146 155.318C324.57 154.894 325.258 154.894 325.682 155.318C326.106 155.742 326.106 156.43 325.682 156.854L323.854 158.682C323.642 158.894 323.364 159 323.086 159Z" fill="#FFC552"/>
            <path d="M322.087 152H319.913C319.409 152 319 151.552 319 151C319 150.448 319.409 150 319.913 150H322.087C322.591 150 323 150.448 323 151C323 151.552 322.591 152 322.087 152Z" fill="#FFC552"/>
            <path d="M324.914 146C324.636 146 324.358 145.92 324.146 145.761L322.318 144.39C321.894 144.072 321.894 143.556 322.318 143.238C322.742 142.92 323.43 142.92 323.854 143.238L325.682 144.609C326.106 144.927 326.106 145.443 325.682 145.761C325.47 145.92 325.192 146 324.914 146Z" fill="#FFC552"/>
            <path d="M317 200H389V187.109L384.197 183L365.245 185.119L349.21 183L336.575 185.119L327.464 183L317 187.109L317 200Z" fill="#FFC552"/>
            <path d="M389 186.819C384.449 185.245 379.151 185.245 374.6 186.819C370.049 188.394 364.751 188.394 360.2 186.819C355.649 185.245 350.351 185.245 345.8 186.819C341.249 188.394 335.951 188.394 331.4 186.819C326.849 185.245 321.551 185.245 317 186.819V180.124L324.006 175.684L335.36 177.998L343.674 177.845L353 175.684L361.236 176.423L367.675 178.943L378.852 175L386.627 176.423L389 180.124V186.819L389 186.819Z" fill="#70B1CC"/>
            <path d="M389 179.985C384.449 178.631 379.151 178.631 374.6 179.985C370.049 181.338 364.751 181.338 360.2 179.985C355.649 178.631 350.351 178.631 345.8 179.985C341.249 181.338 335.951 181.338 331.4 179.985C326.849 178.631 321.551 178.631 317 179.985V174.23L324.006 170.301L339.248 172.181L353 170L368.647 172.575L383.103 170L389 174.23V179.985Z" fill="#7EC8E6"/>
            <path d="M374.425 151.209C373.749 151.209 373.113 151.371 372.557 151.656C372.618 151.303 372.651 150.94 372.651 150.57C372.651 146.941 369.565 144 365.759 144C362.79 144 360.259 145.79 359.289 148.299C358.887 148.135 358.444 148.043 357.979 148.043C356.145 148.043 354.658 149.46 354.658 151.209C354.658 151.214 354.659 151.219 354.659 151.224C354.543 151.214 354.427 151.209 354.309 151.209C352.129 151.209 350.361 152.894 350.361 154.973C350.361 157.051 352.129 158.737 354.309 158.737H374.425C376.606 158.737 378.374 157.051 378.374 154.973C378.374 152.894 376.606 151.209 374.425 151.209Z" fill="#8CDEFF"/>
            <path d="M374.576 167.65C370.025 169.166 364.727 169.166 360.176 167.65C355.625 166.134 350.327 166.134 345.776 167.65C341.225 169.166 335.927 169.166 331.376 167.65C326.825 166.134 321.527 166.134 316.976 167.65V174.095C321.527 172.579 326.825 172.579 331.376 174.095C335.927 175.611 341.225 175.611 345.776 174.095C350.327 172.579 355.625 172.579 360.176 174.095C364.727 175.611 370.025 175.611 374.576 174.095C379.127 172.579 384.425 172.579 388.976 174.095V167.65C384.425 166.134 379.127 166.134 374.576 167.65Z" fill="#8CDEFF"/>
        </g>
        <path d="M396.059 74.0615H308.478V78.7148H396.059V74.0615Z" fill="#91BDFF"/>
        <path d="M396.059 81.2825H308.478V85.9357H396.059V81.2825Z" fill="#91BDFF"/>
        <path d="M396.059 88.5034H308.478V93.1567H396.059V88.5034Z" fill="#91BDFF"/>
        <path d="M396.059 95.7241H308.478V100.377H396.059V95.7241Z" fill="#91BDFF"/>
        <path d="M396.059 102.945H308.478V107.598H396.059V102.945Z" fill="#91BDFF"/>
        <path d="M396.059 110.165H308.478V114.818H396.059V110.165Z" fill="#91BDFF"/>
        <path d="M396.059 117.386H308.478V122.039H396.059V117.386Z" fill="#91BDFF"/>
        <path d="M396.059 124.607H308.478V129.26H396.059V124.607Z" fill="#91BDFF"/>
        <path d="M396.059 131.828H308.478V136.481H396.059V131.828Z" fill="#91BDFF"/>
        <path d="M396.059 74.0615V158.377" stroke="#91BDFF" stroke-miterlimit="10"/>
        <path d="M397.688 157.317H394.43V165.528H397.688V157.317Z" fill="#91BDFF"/>
        <path d="M408.003 389.594H24.3281L47.4642 376.57H384.867L408.003 389.594Z" fill="#C6DAFA"/>
        <path d="M407.36 389.595H24.3281V400.991H407.36V389.595Z" fill="#91BDFF"/>
        <path d="M361.555 336.136C378.996 336.136 389.689 339.468 390.351 339.68C391.476 340.041 392.093 341.243 391.735 342.367C391.374 343.491 390.166 344.106 389.048 343.75C388.713 343.644 365.042 336.356 330.787 343.803C329.633 344.049 328.496 343.322 328.245 342.169C327.994 341.015 328.727 339.879 329.878 339.627C341.912 337.011 352.619 336.136 361.555 336.136Z" fill="#3763A6"/>
        <path d="M349.118 322.386C349.425 321.798 355.361 300.67 352.223 300.379C349.085 300.088 350.475 302.009 348.761 303.433C347.046 304.857 343.436 283.683 341.77 287.45C340.105 291.216 343.199 295.747 340.815 294.727C338.431 293.707 334.141 274.123 331.085 275.969C328.029 277.814 332.448 284.68 329.864 284.902C327.281 285.125 313.042 278.595 311.2 287.429C309.359 296.264 328.874 297.695 330.819 300.13C332.763 302.566 321.121 303.67 326.925 305.875C332.728 308.079 342.557 310.92 338.92 311.833C338.146 312.027 327.627 307.772 328.171 315.311C328.435 318.963 349.118 322.386 349.118 322.386Z" fill="#2BA167"/>
        <path d="M349.167 324.729C349.167 324.729 345.601 296.662 330.135 292.483" stroke="#1D402F" stroke-miterlimit="10" stroke-linecap="round"/>
        <path d="M360.12 345.238C376.527 345.238 389.828 343.428 389.828 341.195C389.828 338.961 376.527 337.151 360.12 337.151C343.713 337.151 330.413 338.961 330.413 341.195C330.413 343.428 343.713 345.238 360.12 345.238Z" fill="#1D402F"/>
        <path d="M359.246 340.088C359.809 339.739 375.684 324.584 373.131 322.734C370.58 320.885 370.797 323.247 368.596 323.598C366.395 323.949 374.077 303.891 370.725 306.283C367.372 308.675 367.727 314.151 366.195 312.059C364.663 309.967 370.951 290.93 367.381 290.961C363.811 290.992 364.115 299.151 361.779 298.026C359.443 296.9 350.518 284.026 344.432 290.689C338.346 297.351 354.408 308.527 354.841 311.614C355.274 314.7 344.693 309.719 348.563 314.573C352.433 319.428 359.443 326.881 355.849 325.812C355.083 325.585 348.202 316.563 344.828 323.327C343.195 326.604 359.246 340.088 359.246 340.088Z" fill="#2BA167"/>
        <path d="M358.068 346.584C358.068 346.584 369.328 316.163 358.15 304.686" stroke="#1D402F" stroke-miterlimit="10" stroke-linecap="round"/>
        <path d="M364.49 349.196C364.3 348.56 362.429 326.694 365.567 326.996C368.704 327.298 366.978 328.926 368.395 330.645C369.811 332.365 377.328 312.244 378.258 316.256C379.188 320.269 375.299 324.138 377.832 323.584C380.365 323.029 388.252 304.597 390.907 306.983C393.563 309.369 387.935 315.284 390.431 315.987C392.927 316.69 408.139 312.946 408.29 321.969C408.443 330.992 389.005 328.739 386.637 330.766C384.27 332.793 395.499 336.062 389.385 337.139C383.271 338.216 373.083 339.163 376.485 340.742C377.209 341.078 388.339 338.871 386.391 346.173C385.447 349.711 364.49 349.196 364.49 349.196Z" fill="#2BA167"/>
        <path d="M361.074 354.845C361.074 354.845 372.768 324.589 388.743 323.383" stroke="#1D402F" stroke-miterlimit="10" stroke-linecap="round"/>
        <path d="M366.709 323.614C366.42 323.018 361.074 301.733 364.219 301.529C367.364 301.325 365.921 303.208 367.595 304.679C369.269 306.149 373.468 285.085 375.028 288.896C376.588 292.708 373.368 297.15 375.779 296.198C378.191 295.245 383.025 275.788 386.029 277.719C389.032 279.648 384.424 286.388 387 286.683C389.576 286.977 403.991 280.846 405.586 289.728C407.181 298.61 387.633 299.497 385.621 301.878C383.609 304.258 395.217 305.687 389.353 307.729C383.49 309.771 373.586 312.337 377.196 313.351C377.964 313.567 388.598 309.606 387.844 317.127C387.479 320.768 366.709 323.614 366.709 323.614Z" fill="#2BA167"/>
        <path d="M364.242 329.738C364.242 329.738 370.943 297.999 386.519 294.252" stroke="#1D402F" stroke-miterlimit="10" stroke-linecap="round"/>
        <path d="M354.818 345.746C355.028 345.117 357.544 323.315 354.399 323.524C351.255 323.734 352.932 325.41 351.464 327.088C349.997 328.765 343.079 308.43 342.031 312.413C340.983 316.395 344.756 320.379 342.241 319.75C339.725 319.121 332.388 300.463 329.662 302.77C326.937 305.076 332.388 311.155 329.872 311.784C327.357 312.413 312.263 308.22 311.844 317.234C311.425 326.249 330.92 324.571 333.227 326.668C335.533 328.764 324.213 331.699 330.291 332.956C336.371 334.215 346.526 335.462 343.079 336.94C342.345 337.254 331.285 334.719 333.017 342.076C333.855 345.641 354.818 345.746 354.818 345.746Z" fill="#2BA167"/>
        <path d="M355.238 348.052C355.238 348.052 347.272 320.904 331.34 319.227" stroke="#1D402F" stroke-miterlimit="10" stroke-linecap="round"/>
        <path d="M379.051 382.615L377.752 382.921C365.867 385.723 352.969 385.83 340.987 383.228L330.372 341.303C349 345.487 369.076 345.631 387.831 341.718L389.817 341.303L379.051 382.615Z" fill="#3763A6"/>
        <path d="M331.752 346.755C335.715 347.765 345.111 349.72 358.477 349.72C366.982 349.72 377.109 348.909 388.443 346.576L389.633 342.011C389.504 342.015 389.375 342.026 389.246 342.055C354.99 349.501 331.318 342.213 330.984 342.108C330.842 342.063 330.697 342.033 330.554 342.019L331.752 346.755Z" fill="#24416E"/>
        <path d="M358.477 347.875C341.036 347.875 330.343 344.542 329.68 344.331C328.556 343.97 327.938 342.768 328.298 341.644C328.658 340.52 329.866 339.905 330.984 340.261C331.319 340.367 354.99 347.655 389.246 340.208C390.399 339.962 391.536 340.689 391.788 341.842C392.038 342.995 391.307 344.132 390.154 344.384C378.119 347 367.412 347.875 358.477 347.875Z" fill="#3763A6"/>
        <path d="M250.845 368.175L72.071 372.777L28.0085 250.868L206.782 246.266L250.845 368.175Z" fill="#424242"/>
        <path d="M334.378 377.871L155.605 382.473L72.064 372.507L250.837 367.905L334.378 377.871Z" fill="#333333"/>
        <path d="M242.167 361.152L77.7609 365.384L38.574 256.885L202.98 252.653L242.167 361.152Z" fill="#3763A6"/>
        <path d="M72.064 372.506L155.605 382.473L155.864 392.518L72.647 381.198L72.064 372.506Z" fill="#1A1A1A"/>
        <path d="M155.605 382.473L334.378 377.871L334.572 385.405L155.864 392.518L155.605 382.473Z" fill="black"/>
        <path d="M199.025 256.376L236.917 361.287L242.167 361.152L202.98 252.653L38.574 256.885L39.8694 260.473L199.025 256.376Z" fill="#122138"/>
        <path d="M28.0085 250.868L26.9232 252.301L72.647 381.198L72.064 372.506L28.0085 250.868Z" fill="black"/>
        <path d="M243.253 376.722L201.194 377.805L181.54 375.461L223.599 374.378L243.253 376.722Z" fill="#424242"/>
        <path d="M250.843 0V80.3345" stroke="#424242" stroke-miterlimit="10" stroke-linecap="round"/>
        <path d="M220.911 122.482H282.408L251.09 88.0134L220.911 122.482Z" fill="#C6DAFA"/>
        <path d="M258.948 75.1062H243.764V97.5787H258.948V75.1062Z" fill="#C6DAFA"/>
        <path d="M243.764 96.4031L258.929 96.5165L241.429 99.0788L243.764 96.4031Z" fill="#3763A6"/>
        <path d="M179.671 108.706C179.671 108.706 186.036 137.521 175.947 134.441C165.857 131.36 164.964 108.278 164.964 108.278L179.671 108.706Z" fill="#1A1A1A"/>
        <path d="M192.728 265.349C196.532 277.712 200.83 289.247 204.79 295.813C210.309 312.711 217.418 315.808 217.418 315.808L230.059 311.217C232.052 310.397 232.224 306.864 231.736 304.918L220.372 246.691L220.186 246.76" fill="#FCBC76"/>
        <path d="M220.186 246.759L203.281 194.261C170.826 189.027 182.54 224.012 182.54 224.012C184.203 234.036 188.1 250.304 192.728 265.348" fill="white"/>
        <path d="M226.079 245.245C226.079 245.245 203.569 241.094 193.058 257.509L197.786 269.911L199.258 269.961C210.082 270.334 220.73 267.149 229.573 260.894L226.079 245.245Z" fill="white"/>
        <path d="M223.778 249.732C223.778 249.732 219.458 253.954 211.565 256.374C203.671 258.794 195.067 258.816 195.675 256.911C196.283 255.005 196.681 255.67 196.681 255.67L197.874 257.668C197.874 257.668 214.767 256.136 222.232 249.986L221.795 247.113C221.795 247.113 223.215 247.226 223.778 249.732Z" fill="#ADADAD"/>
        <path d="M101.728 193.232L156.244 178.425L203.282 194.355L101.728 193.232Z" fill="white"/>
        <path d="M206.942 362.058L206.729 330.575L208.38 279.31C209.76 259.988 205.932 209.91 195.272 193.735L168.551 184.402L165.819 189.054L161.446 191.774L141.519 182.522L104.445 192.685L113.572 364.46L206.942 362.058Z" fill="white"/>
        <path d="M163.743 195.318C165.132 202.443 166.427 209.588 167.647 216.747C168.79 223.916 169.837 231.101 170.841 238.293C172.804 252.684 174.269 267.137 175.612 281.603C176.677 296.092 177.564 310.601 177.864 325.131C177.866 332.401 178.014 339.664 177.767 346.929C177.607 354.194 177.62 355.591 177.172 362.83L176.701 362.841C177.297 348.347 176.969 339.672 176.528 325.174C175.973 310.68 175.096 296.2 173.896 281.745C172.683 267.29 171.223 252.857 169.508 238.453C167.78 224.052 165.855 209.67 163.574 195.345L163.743 195.318Z" fill="#ADADAD"/>
        <path d="M158.382 201.296C157.933 201.304 157.482 201.122 157.165 200.801C156.832 200.497 156.634 200.052 156.626 199.604C156.618 199.139 156.799 198.705 157.121 198.371C157.747 197.722 158.902 197.7 159.551 198.326C159.884 198.648 160.065 199.075 160.074 199.54C160.082 199.987 159.918 200.439 159.596 200.754C159.275 201.089 158.847 201.288 158.382 201.296Z" fill="#ADADAD"/>
        <path d="M171.702 345.652C170.754 345.67 169.963 344.891 169.963 343.943C169.946 342.996 170.708 342.223 171.655 342.205C172.62 342.188 173.393 342.966 173.41 343.913C173.411 344.862 172.666 345.634 171.718 345.652C171.702 345.652 171.702 345.652 171.702 345.652ZM169.015 315.017C168.963 314.069 169.689 313.245 170.654 313.21C171.602 313.158 172.408 313.884 172.459 314.831C172.512 315.779 171.785 316.603 170.82 316.638C170.804 316.655 170.787 316.656 170.769 316.656C169.839 316.673 169.068 315.945 169.015 315.017ZM167.051 286.125C166.981 285.179 167.673 284.338 168.637 284.251C169.583 284.181 170.407 284.89 170.494 285.837C170.562 286.783 169.854 287.607 168.908 287.694C168.874 287.695 168.839 287.695 168.805 287.696C167.908 287.713 167.137 287.038 167.051 286.125ZM164.277 257.284C164.173 256.337 164.864 255.48 165.811 255.376C166.757 255.273 167.615 255.965 167.701 256.91C167.804 257.856 167.13 258.696 166.184 258.8C166.131 258.818 166.08 258.818 166.029 258.819C165.151 258.835 164.38 258.178 164.277 257.284ZM160.815 228.507C160.694 227.56 161.367 226.686 162.313 226.565C163.241 226.444 164.116 227.101 164.236 228.047C164.358 228.992 163.701 229.867 162.755 229.987C162.686 229.988 162.617 229.99 162.548 229.991C161.687 230.008 160.935 229.383 160.815 228.507Z" fill="#ADADAD"/>
        <path d="M148.212 193.083L142.027 182.833L138.094 149.403L158.915 143.493L169.786 188.906C170.787 196.52 154.045 198.078 148.212 193.083Z" fill="#FCBC76"/>
        <path d="M162.154 177.197C163.74 176.966 165.215 176.41 166.563 175.631L158.914 143.494L138.093 149.404L139.951 165.194L140.409 165.915L152.824 174.841C155.594 176.831 158.913 177.67 162.154 177.197Z" fill="#E3923C"/>
        <path d="M166.33 174.699C172.106 174.179 176.864 169.665 178.125 163.509L181.898 145.109C182.425 142.539 182.489 139.9 182.081 137.309C180.57 127.705 178.491 117.425 176.307 111.981L175.977 109.343C171.976 99.3736 162.375 99.3 152.502 100.19C141.665 101.165 138.276 109.399 137.129 121.189L131.053 127.267C130.535 132.596 131.655 137.989 134.24 142.602L143.292 160.112C143.776 161.048 144.456 161.87 145.286 162.521L157.142 171.832C159.8 173.972 163.068 174.993 166.33 174.699Z" fill="#FCBC76"/>
        <path d="M136.699 146.451C136.699 146.451 140.844 127.337 139.476 119.408C139.476 119.408 177.338 129.507 180.876 110.784C180.876 110.784 184.838 97.8772 171.499 97.9915C157.82 98.1085 128.582 94.1986 129.102 117.715C129.768 147.822 136.699 146.451 136.699 146.451Z" fill="#1A1A1A"/>
        <path d="M141.598 140.911C144.222 144.61 144.047 149.241 141.209 151.254C138.371 153.266 133.944 151.898 131.321 148.199C128.697 144.5 128.872 139.869 131.71 137.856C134.547 135.844 138.975 137.212 141.598 140.911Z" fill="#FCBC76"/>
        <path opacity="0.67" d="M133.628 184.605L152.189 205.748L163.658 195.332L133.628 184.605Z" fill="#707070"/>
        <path opacity="0.67" d="M176.006 185.871L170.613 200.482L173.315 200.543L176.006 185.871Z" fill="#707070"/>
        <path opacity="0.67" d="M163.658 195.332L157.203 204.753L164.331 197.739L171.207 201.744L163.658 195.332Z" fill="#707070"/>
        <path d="M166.994 177.418L171.136 177.51L168.417 184.558L166.994 177.418Z" fill="#ADADAD"/>
        <path d="M171.136 177.51L176.006 185.871L171.413 201.887L163.658 195.332L171.136 177.51Z" fill="white"/>
        <path d="M141.224 175.605L137.006 175.667C137.484 175.955 141.536 178.838 141.536 178.838L141.224 175.605Z" fill="#ADADAD"/>
        <path d="M137.006 175.667L133.451 184.774L157.203 204.753L163.658 195.332L141.268 178.634" fill="white"/>
        <path opacity="0.42" d="M190.274 303.456L114.187 301.694C113.868 282.785 114.586 238.522 109.812 218.69C109.812 218.69 106.902 195.575 98.6688 197.796L88.517 264.182L88.2893 335.867L96.2979 323.307C102.34 331.263 119.478 341.668 129.339 340.694C181.319 335.558 206.848 317.658 206.848 317.658L190.274 303.456Z" fill="#707070"/>
        <path d="M101.967 195.893C103.008 196.498 103.303 197.618 103.691 198.579C104.022 199.58 104.297 200.601 104.507 201.626C104.883 203.686 105.073 205.754 105.244 207.822C105.421 209.887 105.386 211.959 105.354 214.017C105.332 216.081 105.273 218.139 105.165 220.193C105.007 222.246 104.781 224.287 104.563 226.329C104.339 228.372 104.165 230.416 103.774 232.437C103.428 234.462 103.107 236.488 102.705 238.503C102.223 240.508 101.841 242.524 101.272 244.513L101.101 244.491C101.558 240.429 102.069 236.372 102.443 232.301C102.86 228.235 103.197 224.16 103.446 220.082C103.756 216.007 103.896 211.922 103.901 207.839C103.874 205.798 103.818 203.754 103.599 201.727C103.505 200.712 103.346 199.704 103.133 198.711C103 198.222 102.898 197.721 102.697 197.258C102.536 196.8 102.271 196.293 101.924 196.061L101.967 195.893Z" fill="#ADADAD"/>
        <path d="M112.963 262.254L113.231 258.14C113.119 259.474 113.035 260.855 112.963 262.254Z" fill="#ADADAD"/>
        <path d="M109.977 269.798C108.949 259.701 115.322 237.001 109.721 213.728C109.721 213.728 117.183 187.806 95.9701 194.249C89.8611 196.106 81.2527 225.843 80.2294 237.655L78.0994 268.733C77.0743 276.8 78.9039 280.056 79.6996 288.149" fill="white"/>
        <path d="M79.6995 288.148L84.4068 331.181C84.8038 333.543 86.5961 337.383 88.991 337.449L123.976 335.829C123.976 335.829 112.121 290.847 109.978 269.798" fill="#FCBC76"/>
        <path d="M98.9125 322.948L110.667 296.652L190.183 298.493L190.843 324.677C190.843 324.677 93.3103 351.384 98.9125 322.948Z" fill="#FCBC76"/>
        <path d="M134.981 297.215L127.066 296.22C127.066 296.22 187.387 326.435 191.269 324.668C199.37 320.983 207.34 316.304 207.34 316.304L190.182 298.493L134.981 297.215Z" fill="#E3923C"/>
        <path d="M134.593 283.979C134.593 283.979 127.66 284.107 124.984 284.605C122.308 285.102 114.587 296.761 114.587 296.761L130.109 297.173L134.593 283.979Z" fill="#FCBC76"/>
        <path d="M221.925 307.643L217.37 282.497L134.593 283.98L127.56 296.805C127.56 296.805 226.927 334.493 221.925 307.643Z" fill="#FCBC76"/>
        <path d="M115.269 266.007C115.269 266.007 87.5761 256.151 70.8998 274.818L74.3632 291.508L76.2202 291.873C89.8682 294.555 104.018 292.69 116.505 286.563L115.269 266.007Z" fill="white"/>
        <path d="M111.437 271.227C111.437 271.227 105.098 275.697 94.5967 277.155C84.0949 278.612 73.1812 276.886 74.341 274.593C75.4999 272.301 75.8684 273.226 75.8684 273.226L76.9733 276.003C76.9733 276.003 98.7042 277.508 109.424 271.233L109.457 267.502C109.457 267.502 111.234 267.935 111.437 271.227Z" fill="#ADADAD"/>
        <path d="M202.741 226.776C203.809 230.229 204.609 233.805 205.314 237.426C205.693 239.224 205.97 241.069 206.299 242.89C206.592 244.729 206.856 246.581 207.131 248.426C207.359 250.295 207.608 252.153 207.818 254.029C207.999 255.92 208.224 257.789 208.354 259.702C208.663 263.507 208.879 267.355 208.83 271.327L208.671 271.4L205.548 249.161L202.582 226.848L202.741 226.776Z" fill="#ADADAD"/>
        <path d="M186.764 283.067C186.764 283.067 204.019 270.853 214.876 270.652L226.94 279.842L225.462 297.647L212.699 284.229L186.764 283.067Z" fill="#FCBC76"/>
        <path d="M104.446 192.687C106.275 195.181 107.716 197.924 108.88 200.758C110.075 203.587 110.99 206.519 111.756 209.486C112.429 212.473 113.062 215.476 113.28 218.538C113.427 220.062 113.485 221.595 113.563 223.118C113.528 224.657 113.529 226.186 113.376 227.721L113.205 227.737C112.873 224.734 112.497 221.735 111.962 218.761C111.471 215.78 110.797 212.833 110.084 209.9C109.367 206.967 108.54 204.061 107.593 201.193C106.637 198.331 105.584 195.489 104.292 192.765L104.446 192.687Z" fill="#ADADAD"/>
        <path d="M95.7937 199.926L95.1877 218.483C95.0131 224.658 94.7899 230.823 94.8395 236.987C94.7367 243.147 94.8829 249.308 95.3002 255.419C95.5049 258.473 95.8158 261.521 96.3758 264.492C96.8985 267.463 97.6906 270.416 99.2854 272.787L99.2101 272.891C97.4195 270.671 96.4892 267.651 95.8043 264.69C95.1336 261.693 94.7332 258.619 94.4319 255.54C93.8409 249.374 93.7001 243.163 93.7134 236.967C93.7479 230.768 93.9747 224.577 94.3114 218.399C94.6525 212.221 95.0955 206.053 95.6812 199.906L95.7937 199.926Z" fill="#ADADAD"/>
        <path d="M132.459 142.214C132.459 142.214 136.726 140.943 138.27 145.664" stroke="#E3923C" stroke-miterlimit="10" stroke-linecap="round"/>
        <path d="M134.593 145.438L136.318 142.895" stroke="#E3923C" stroke-miterlimit="10" stroke-linecap="round"/>
        <path d="M195.889 210.687C191.185 190.409 175.38 184.574 175.217 184.513L174.378 183.068C174.606 183.112 192.052 189.65 196.878 210.457L195.889 210.687Z" fill="#3763A6"/>
        <path d="M195.691 228.629C193.353 228.323 191.25 227.161 189.737 225.336C188.151 223.419 187.405 220.999 187.638 218.522C187.945 215.266 189.981 212.373 192.953 210.972C193.18 210.866 193.452 210.94 193.591 211.148C193.731 211.357 193.699 211.637 193.513 211.807C191.994 213.202 191.052 215.093 190.859 217.132C190.431 221.689 193.794 225.737 198.344 226.171H198.345C199.813 226.31 201.3 226.047 202.647 225.412C202.875 225.306 203.146 225.38 203.285 225.588C203.425 225.797 203.392 226.077 203.207 226.246C201.262 228.031 198.65 228.913 196.038 228.668C195.922 228.657 195.806 228.644 195.691 228.629Z" fill="#C9C9C9"/>
        <path d="M195.691 228.629C193.353 228.323 191.25 227.161 189.737 225.336C188.151 223.419 187.405 220.999 187.638 218.522C187.945 215.266 189.981 212.373 192.953 210.972C193.18 210.866 193.452 210.94 193.591 211.148C193.731 211.357 193.699 211.637 193.513 211.807C191.994 213.202 191.052 215.093 190.859 217.132C190.431 221.689 193.794 225.737 198.344 226.171H198.345C199.813 226.31 201.3 226.047 202.647 225.412C202.875 225.306 203.146 225.38 203.285 225.588C203.425 225.797 203.392 226.077 203.207 226.246C201.262 228.031 198.65 228.913 196.038 228.668C195.922 228.657 195.806 228.644 195.691 228.629Z" fill="#264473"/>
        <path d="M196.948 227.879C192.01 227.231 188.421 222.77 188.89 217.771C189.372 212.657 193.924 208.889 199.037 209.369C204.152 209.838 207.919 214.403 207.439 219.516V219.517C206.957 224.63 202.405 228.399 197.292 227.917C197.177 227.907 197.062 227.894 196.948 227.879Z" fill="#3763A6"/>
        <path d="M197.272 225.42C193.649 224.944 191.015 221.671 191.36 218.004C191.713 214.252 195.052 211.487 198.805 211.839C202.559 212.183 205.322 215.532 204.969 219.284V219.285C204.616 223.038 201.277 225.803 197.524 225.449C197.44 225.44 197.355 225.431 197.272 225.42Z" fill="#264473"/>
        <path d="M109.141 281.222L103.844 280.715C101.775 280.517 99.9128 279.521 98.5988 277.911C97.2849 276.302 96.6842 274.276 96.9057 272.211L101.57 228.751C102.293 224.777 105.317 221.88 109.28 221.333C113.241 220.786 116.941 222.753 118.7 226.347L135.356 267.269C136.196 269.331 136.104 271.655 135.103 273.644C134.103 275.634 132.292 277.093 130.135 277.648L126.316 278.633L126.062 277.648L129.882 276.664C131.754 276.182 133.326 274.914 134.195 273.187C135.063 271.461 135.144 269.443 134.415 267.652L117.773 226.762C116.225 223.602 112.941 221.853 109.42 222.339C105.899 222.825 103.212 225.4 102.575 228.896L97.9157 272.319C97.7235 274.112 98.2444 275.87 99.3856 277.268C100.527 278.666 102.144 279.531 103.94 279.702L109.237 280.209L109.141 281.222Z" fill="#3763A6"/>
        <path d="M124.063 278.463C123.963 277.135 124.958 275.978 126.285 275.877C127.614 275.776 128.771 276.771 128.872 278.1C128.972 279.428 127.977 280.585 126.65 280.686C125.321 280.785 124.164 279.79 124.063 278.463Z" fill="#3763A6"/>
        <path d="M106.869 280.757C106.769 279.429 107.764 278.271 109.091 278.171C110.419 278.07 111.576 279.065 111.677 280.393C111.777 281.721 110.782 282.878 109.455 282.979C108.126 283.08 106.969 282.085 106.869 280.757Z" fill="#3763A6"/>
        <path d="M101.593 236.872L100.714 236.364C103.61 231.35 106.99 228.668 110.761 228.393C116.804 227.962 121.581 233.876 121.779 234.129L120.982 234.76C120.937 234.702 116.343 228.998 110.829 229.407C107.418 229.656 104.31 232.168 101.593 236.872Z" fill="#3763A6"/>
        <path d="M107.948 221.835C107.909 221.502 104.604 188.474 134.586 181.862L134.107 183.094C105.012 189.509 108.92 221.394 108.957 221.718L107.948 221.835Z" fill="#3763A6"/>
        <path d="M154.862 137.988C154.84 139.063 154.321 139.924 153.702 139.912C153.082 139.899 152.599 139.018 152.62 137.944C152.641 136.869 153.16 136.008 153.78 136.02C154.399 136.033 154.883 136.914 154.862 137.988Z" fill="#1A1A1A"/>
        <path d="M175.512 136.698C175.491 137.773 174.972 138.633 174.353 138.621C173.733 138.608 173.25 137.728 173.271 136.653C173.292 135.578 173.811 134.718 174.431 134.73C175.05 134.743 175.535 135.623 175.512 136.698Z" fill="#1A1A1A"/>
        <path d="M166.21 133.649C166.21 133.649 168.6 140.627 169.939 145.407C171.276 150.187 163.055 149.326 163.055 149.326" stroke="#E3923C" stroke-miterlimit="10" stroke-linecap="round"/>
        <path d="M153.705 151.748C153.705 151.748 156.792 159.374 164.42 157.196" stroke="#E3923C" stroke-miterlimit="10" stroke-linecap="round"/>
        <path d="M114.301 296.714C114.301 296.714 108.607 296.406 105.326 303.603C105.326 303.603 112.26 298.2 114.301 296.714Z" fill="#E3923C"/>
        <path d="M186.764 283.067L213.472 284.229L226.139 298.062L208.753 286.385L186.764 283.067Z" fill="#E3923C"/>
        <path d="M208.69 271.698L215.69 269.914L226.628 279.745L215.713 271.155L208.69 271.698Z" fill="#E3923C"/>
        <path d="M217.462 276.271C218.465 276.672 219.305 277.263 220.185 277.816C221.053 278.382 221.88 279.004 222.724 279.6C223.531 280.246 224.359 280.865 225.145 281.538C225.932 282.21 226.711 282.893 227.438 283.643L227.412 283.678L222.459 279.955L219.982 278.094C219.151 277.492 218.326 276.835 217.464 276.317L217.462 276.271Z" fill="#E3923C"/>
        <path d="M218.065 280.915C219.068 281.316 219.908 281.906 220.789 282.459C221.656 283.026 222.483 283.647 223.327 284.244C224.134 284.89 224.963 285.508 225.749 286.181C226.535 286.853 227.314 287.536 228.042 288.287L228.015 288.322L223.062 284.598L220.585 282.738C219.754 282.136 218.928 281.479 218.067 280.96L218.065 280.915Z" fill="#E3923C"/>
        <path d="M218.369 286.185C219.372 286.586 220.212 287.177 221.093 287.729C221.96 288.296 222.787 288.917 223.631 289.514C224.438 290.16 225.267 290.778 226.053 291.451C226.839 292.123 227.618 292.806 228.346 293.557L228.319 293.592L223.366 289.868L220.889 288.008C220.058 287.406 219.233 286.749 218.371 286.23L218.369 286.185Z" fill="#E3923C"/>
        <path d="M147.365 139.885C147.355 139.738 147.349 139.59 147.348 139.441C147.323 135.602 150.412 132.47 154.25 132.444C158.088 132.418 161.22 135.508 161.247 139.346C161.273 143.184 158.182 146.317 154.345 146.342C150.656 146.368 147.619 143.514 147.365 139.885Z" stroke="white" stroke-miterlimit="10" stroke-linecap="round"/>
        <path d="M183.613 137.31C183.639 141.148 180.549 144.281 176.711 144.306C172.873 144.332 169.74 141.243 169.715 137.404C169.689 133.566 172.779 130.434 176.616 130.408C180.455 130.381 183.588 133.471 183.613 137.31Z" stroke="white" stroke-miterlimit="10" stroke-linecap="round"/>
        <path d="M161.196 137.878C161.196 137.878 165.645 133.583 169.714 137.404" stroke="white" stroke-miterlimit="10" stroke-linecap="round"/>
        <path d="M137.949 137.227L147.347 139.441" stroke="white" stroke-miterlimit="10" stroke-linecap="round"/>
        <path d="M172.834 127.743C172.834 127.743 175.163 125.008 178.793 127.948" stroke="#1A1A1A" stroke-miterlimit="10" stroke-linecap="round"/>
        <path d="M148.854 130.072C148.854 130.072 151.593 127.035 157.277 129.433" stroke="#1A1A1A" stroke-miterlimit="10" stroke-linecap="round"/>
        <path d="M149.547 247.352L131.767 249.015L131.778 242.375L149.557 240.711L149.547 247.352Z" fill="#3763A6"/>
        <path d="M116.722 53.0618H35.3871V102.912H116.722V53.0618Z" fill="#91BDFF"/>
        <path d="M86.9868 97.8145L103.562 118.071V95.9158L86.9868 97.8145Z" fill="#91BDFF"/>
        <path d="M46.2318 64.9937H78.1277" stroke="white" stroke-miterlimit="10"/>
        <path d="M46.2318 72.5422H105.877" stroke="white" stroke-miterlimit="10"/>
        <path d="M46.2318 80.0911H105.877" stroke="white" stroke-miterlimit="10"/>
        <path d="M46.2318 87.6396H105.877" stroke="white" stroke-miterlimit="10"/>
        <path d="M273.811 289.69C270.617 289.69 267.585 290.493 265.123 292.053C262.309 293.835 260.255 296.65 259.669 300.275C259.084 303.889 259.945 308.264 262.721 313.264C264.658 316.74 267.042 319.494 268.547 322.395C269.758 324.904 270.344 326.955 270.07 329.738C268.635 330.021 267.558 331.271 267.558 332.785C267.558 334.494 268.947 335.891 270.656 335.891C272.375 335.891 273.762 334.494 273.762 332.785C273.762 331.496 272.98 330.402 271.867 329.924C271.965 328.928 271.965 327.99 271.877 327.082C272.775 326.027 273.82 325.49 275.119 325.314C276.555 325.109 278.312 325.383 280.324 326.105C280.822 327.053 281.271 328.059 281.662 329.143C280.764 329.67 280.168 330.646 280.168 331.76C280.168 333.43 281.525 334.787 283.195 334.787C284.875 334.787 286.232 333.43 286.232 331.76C286.232 330.168 285.012 328.859 283.449 328.732C283.059 327.6 282.6 326.545 282.092 325.549C283.088 324.582 284.777 323.918 286.74 323.537C288.889 323.117 291.301 323.01 293.322 322.951C294.006 323.576 294.68 324.24 295.334 324.934C295.285 325.148 295.256 325.383 295.256 325.617C295.256 327.219 296.555 328.508 298.146 328.508C299.748 328.508 301.037 327.219 301.037 325.617C301.037 324.025 299.748 322.727 298.146 322.727C297.473 322.727 296.848 322.961 296.359 323.352C295.725 322.697 295.08 322.082 294.426 321.486C294.328 316.691 295.725 312.932 298.117 309.846C298.986 309.631 299.875 309.318 300.793 308.898C301.359 309.455 302.131 309.797 302.98 309.797C304.689 309.797 306.076 308.41 306.076 306.691C306.076 304.982 304.689 303.596 302.98 303.596C301.271 303.596 299.875 304.982 299.875 306.691C299.875 306.896 299.895 307.102 299.934 307.297C299.172 307.639 298.449 307.893 297.746 308.078C296.232 306.135 296.096 304.611 296.516 302.922C296.965 301.125 298.205 299.152 299.436 296.877C300.051 296.484 300.607 296.01 301.066 295.449C301.604 295.855 302.268 296.096 302.99 296.096C304.738 296.096 306.164 294.677 306.164 292.925C306.164 291.174 304.738 289.755 302.99 289.755C301.242 289.755 299.816 291.174 299.816 292.925C299.816 293.257 299.875 293.577 299.963 293.877C298.869 295.521 296.77 296.438 294.221 296.483C291.623 296.529 288.645 295.647 286.145 293.822C282.238 291.487 277.736 289.742 273.811 289.69ZM278.381 292.132C280.197 292.599 282.004 293.349 283.723 294.399L283.732 295.84C282.004 294.548 280.109 293.179 278.43 292.31L278.381 292.132ZM272.346 292.446L272.795 293.987C271.701 293.479 270.559 293.074 269.348 292.807C270.393 292.592 271.369 292.413 272.346 292.446ZM274.318 292.712C275.207 292.914 276.115 293.245 276.877 293.594L277.834 297.201C276.936 296.491 276.018 295.821 275.051 295.221L274.318 292.712ZM268.186 294.448C269.992 294.744 271.652 295.394 273.225 296.276L272.17 298.098C270.803 296.796 269.416 295.485 268.186 294.448ZM279.074 294.774C280.129 295.424 281.164 296.168 282.189 296.95C282.707 297.353 283.225 297.765 283.742 298.176L283.771 302.482C282.629 301.447 281.467 300.344 280.266 299.27L279.074 294.774ZM285.559 295.639C286.789 296.472 288.117 297.111 289.455 297.555L289.523 300.314C288.254 299.465 286.936 298.4 285.568 297.299L285.559 295.639ZM266.78 295.656C268.303 296.929 269.768 298.322 271.213 299.768L269.855 302.102C268.527 299.895 267.44 297.676 266.78 295.656ZM274.777 297.24C276.115 298.146 277.395 299.191 278.654 300.305C278.459 300.9 277.463 302.443 277.082 303.049C275.891 301.857 274.709 300.637 273.508 299.436L274.777 297.24ZM296.721 298.01C295.92 299.436 295.178 300.832 294.777 302.326C293.684 302.346 292.551 302.014 291.369 301.418L291.291 298.039C293.156 298.381 295.002 298.41 296.721 298.01ZM263.233 298.791C263.263 300.92 263.597 302.824 264.152 304.543L262.565 304.211C262.6 302.209 262.841 300.354 263.233 298.791ZM266.395 299.641C267.026 300.969 267.74 302.199 268.518 303.322L267.194 303.889C266.731 302.395 266.435 300.93 266.395 299.641ZM285.578 299.65C286.975 300.715 288.195 301.701 289.572 302.502L289.67 306.965C288.293 306.223 286.945 305.227 285.607 304.094L285.578 299.65ZM272.541 301.115C273.703 302.297 274.865 303.508 276.057 304.689L274.455 307.268C273.225 306.184 272.082 305.012 271.037 303.703L272.541 301.115ZM280.129 301.623C281.398 302.766 282.57 303.879 283.684 304.855L282.014 307.648C280.773 306.613 279.582 305.51 278.42 304.367L280.129 301.623ZM291.418 303.449C292.424 303.869 293.459 304.123 294.514 304.152C294.494 305.529 294.865 306.955 295.773 308.41C294.221 308.469 292.844 308.283 291.516 307.805L291.418 303.449ZM269.641 304.826C270.607 306.047 271.652 307.15 272.766 308.176L270.549 308.957C269.504 307.805 268.615 306.73 267.961 305.539L269.641 304.826ZM277.395 305.998C278.566 307.131 279.768 308.234 281.037 309.27L279.826 311.291C278.459 310.373 277.004 309.338 275.871 308.439L277.395 305.998ZM285.1 306.047C286.467 307.15 287.883 308.137 289.396 308.879L287.805 311.662C286.262 310.822 284.816 309.855 283.449 308.801C283.996 307.883 284.553 306.965 285.1 306.047ZM262.782 306.125L264.939 306.574C265.46 307.717 266.078 308.781 266.768 309.787L264.079 309.602C263.489 308.557 263.035 307.414 262.782 306.125ZM274.357 309.553C275.471 310.471 276.633 311.32 277.824 312.131L275.451 312.932C274.27 312.121 273.059 311.223 272.053 310.363L274.357 309.553ZM291.086 309.592C292.551 310.09 294.26 310.295 295.637 310.236C294.895 311.418 294.26 312.688 293.781 314.055C292.238 313.645 290.793 313.117 289.436 312.492C289.982 311.525 290.539 310.559 291.086 309.592ZM282.482 310.412C283.869 311.457 285.324 312.424 286.887 313.273L285.832 315.119C284.318 314.152 282.814 313.225 281.359 312.287C281.73 311.662 282.111 311.037 282.482 310.412ZM270.08 311.057C271.135 312.092 272.326 312.824 273.303 313.654L272.648 313.869C271.74 312.941 270.744 311.877 270.08 311.057ZM265.373 311.516C266.317 311.574 267.26 311.662 268.205 311.711C268.947 312.58 269.729 313.459 270.402 314.172C269.689 314.24 268.703 314.26 267.902 314.289C266.997 313.342 266.062 312.395 265.373 311.516ZM279.738 313.42C281.213 314.367 282.707 315.295 284.201 316.252L281.857 317.307C280.383 316.203 278.713 315.09 277.365 314.211L279.738 313.42ZM288.518 314.094C289.992 314.777 291.564 315.354 293.244 315.803C292.922 317.111 292.717 318.488 292.648 319.953C290.92 318.537 289.143 317.287 287.365 316.115C287.746 315.441 288.137 314.768 288.518 314.094ZM275.178 314.943C276.848 316.076 278.498 317.121 279.943 318.166L277.707 319.172C276.525 317.805 275.285 316.545 274.074 315.314L275.178 314.943ZM272.131 315.959C273.264 317.102 274.396 318.234 275.49 319.436H273.068C272.023 318.205 270.881 317.111 269.758 316.047C270.549 316.037 271.34 315.959 272.131 315.959ZM267.164 316.145C268.312 317.248 269.475 318.312 270.559 319.436H268.937C268.234 318.332 267.48 317.248 266.725 316.154C266.871 316.154 267.019 316.145 267.164 316.145ZM286.037 317.434C287.814 318.605 289.572 319.836 291.281 321.203C289.348 321.33 287.609 321.506 285.939 321.838C285.344 320.637 284.465 319.582 283.41 318.615C284.279 318.215 285.158 317.824 286.037 317.434ZM281.574 319.436C282.678 320.363 283.557 321.32 284.133 322.336C283.029 322.707 282.014 323.215 281.193 323.918C280.49 322.736 279.719 321.652 278.918 320.627L281.574 319.436ZM270.012 321.262H272.18C272.795 322.033 273.361 322.844 273.84 323.723C272.99 323.977 272.199 324.377 271.486 324.943C271.086 323.576 270.607 322.365 270.012 321.262ZM274.475 321.262H277.072C277.736 322.072 278.371 322.912 278.967 323.801C277.834 323.527 276.76 323.391 275.734 323.43C275.334 322.658 274.895 321.877 274.475 321.262Z" fill="#5795E0"/>
    </g>
    <defs>
        <clipPath id="clip0_861_1463">
            <rect width="443" height="443" fill="white" transform="translate(-7)"/>
        </clipPath>
        <clipPath id="clip1_861_1463">
            <rect width="88" height="60" fill="white" transform="translate(308 141)"/>
        </clipPath>
    </defs>
</svg>
